<?xml version="1.0" encoding="iso-8859-1"?>
<!-- Generator: Adobe Illustrator 17.1.0, SVG Export Plug-In . SVG Version: 6.00 Build 0)  -->
<!DOCTYPE svg PUBLIC "-//W3C//DTD SVG 1.1//EN" "http://www.w3.org/Graphics/SVG/1.1/DTD/svg11.dtd">
<svg version="1.1" id="Capa_1" xmlns="http://www.w3.org/2000/svg" xmlns:xlink="http://www.w3.org/1999/xlink" x="0px" y="0px"
	 viewBox="0 0 455 455" style="enable-background:new 0 0 455 455;" xml:space="preserve">
<path d="M437.15,132.491C424.782,105.09,407.619,90,388.823,90h-17.451c-12.933-18.966-28.785-30-46.09-30H209.226
	c-12.085-12.819-25.833-20-40.522-20h-50c-26.219,0-49.827,22.213-66.632,62.587c-8.467,6.7-16.133,14.86-22.895,24.428
	C10.362,153.637,0,189.323,0,227.5s10.362,73.863,29.176,100.485c6.762,9.568,14.428,17.728,22.895,24.428
	C68.876,392.787,92.485,415,118.704,415h50c14.689,0,28.437-7.181,40.522-20h116.056c17.306,0,33.158-11.034,46.09-30h17.451
	c18.796,0,35.959-15.09,48.327-42.491C448.661,297.007,455,263.265,455,227.5S448.661,157.993,437.15,132.491z M15,227.5
	c0-35.104,9.385-67.716,26.426-91.827c18.315-25.915,44.251-39.892,75.113-40.514c2.721,2.17,10.491,9.75,18.794,30.415
	c11.038,27.471,17.117,63.669,17.117,101.927s-6.079,74.456-17.117,101.927c-8.303,20.667-16.074,28.245-18.794,30.415
	c-21.116-0.417-38.747-6.937-53.076-17.565c-0.466-0.458-0.989-0.848-1.55-1.167C29.976,316.347,15,270.803,15,227.5z
	 M75.653,366.421c13.142,5.578,27.572,8.442,43.051,8.442c1.081,0,2.149-0.233,3.131-0.685c2.393-1.1,14.958-8.153,27.417-39.159
	c11.735-29.207,18.198-67.392,18.198-107.52s-6.463-78.313-18.198-107.52c-12.458-31.006-25.024-38.06-27.417-39.159
	c-0.982-0.451-2.05-0.685-3.131-0.685c-15.479,0-29.909,2.865-43.051,8.442C88.282,66.99,103.397,55,118.704,55
	c18.309,0,36.757,17.607,50.613,48.306c14.917,33.049,23.132,77.155,23.132,124.194s-8.215,91.145-23.132,124.194
	C155.46,382.393,137.013,400,118.704,400C103.397,400,88.282,388.01,75.653,366.421z M168.704,400h-14.602
	c31.665-28.358,53.348-94.089,53.348-172.5S185.766,83.358,154.101,55h14.602c18.309,0,36.757,17.607,50.613,48.306
	c2.85,6.314,5.453,13.035,7.804,20.1c0.08,0.303,0.174,0.6,0.289,0.886c6.687,20.366,11.269,43.567,13.492,68.273
	c0.011,0.202,0.027,0.401,0.054,0.599c0.988,11.183,1.495,22.669,1.495,34.336c0,11.663-0.506,23.145-1.493,34.323
	c-0.028,0.208-0.046,0.42-0.057,0.633c-2.224,24.702-6.806,47.898-13.492,68.26c-0.113,0.283-0.206,0.575-0.285,0.874
	c-2.351,7.066-4.954,13.788-7.805,20.104C205.46,382.393,187.013,400,168.704,400z M239.81,341h50.562c4.142,0,7.5-3.358,7.5-7.5
	s-3.358-7.5-7.5-7.5h-45.763c4.85-16.897,8.469-35.623,10.607-55.667h51.518c4.142,0,7.5-3.358,7.5-7.5s-3.358-7.5-7.5-7.5h-50.219
	c0.613-9.065,0.935-18.355,0.935-27.833s-0.322-18.769-0.935-27.833h50.215c4.142,0,7.5-3.358,7.5-7.5s-3.358-7.5-7.5-7.5h-51.514
	c-2.138-20.044-5.757-38.77-10.606-55.667h45.763c4.142,0,7.5-3.358,7.5-7.5s-3.358-7.5-7.5-7.5h-50.561
	c-5.307-14.948-11.661-28.093-18.851-39h44.323c15.933,0,32.054,15.472,44.23,42.448C322.724,146.72,330,185.803,330,227.5
	c0,85.514-28.428,152.5-64.718,152.5h-44.323C228.15,369.093,234.504,355.948,239.81,341z M325.282,380h-25.28
	c9.199-8.634,17.401-20.861,24.211-36.343C337.618,313.181,345,271.929,345,227.5c0-68.61-18.687-126.354-46.183-152.5h26.465
	c15.933,0,32.054,15.472,44.23,42.448C382.724,146.72,390,185.803,390,227.5s-7.276,80.78-20.488,110.052
	C357.335,364.528,341.214,380,325.282,380z M423.478,316.338C413.822,337.731,401.191,350,388.823,350h-8.657
	C395.533,319.649,405,276.328,405,227.5s-9.467-92.149-24.834-122.5h8.657c12.368,0,25,12.269,34.655,33.662
	C434.132,162.267,440,193.817,440,227.5S434.132,292.733,423.478,316.338z"/>
<g>
</g>
<g>
</g>
<g>
</g>
<g>
</g>
<g>
</g>
<g>
</g>
<g>
</g>
<g>
</g>
<g>
</g>
<g>
</g>
<g>
</g>
<g>
</g>
<g>
</g>
<g>
</g>
<g>
</g>
</svg>
