<?xml version="1.0" encoding="iso-8859-1"?>
<!-- Generator: Adobe Illustrator 19.0.0, SVG Export Plug-In . SVG Version: 6.00 Build 0)  -->
<svg version="1.1" id="Capa_1" xmlns="http://www.w3.org/2000/svg" xmlns:xlink="http://www.w3.org/1999/xlink" x="0px" y="0px"
	 viewBox="0 0 512.002 512.002" style="enable-background:new 0 0 512.002 512.002;" xml:space="preserve">
<g>
	<g>
		<path d="M353.489,0c-33.084,0-60,26.916-60,60s26.916,60,60,60s60-26.916,60-60S386.573,0,353.489,0z M353.489,90
			c-16.542,0-30-13.458-30-30s13.458-30,30-30s30,13.458,30,30S370.031,90,353.489,90z"/>
	</g>
</g>
<g>
	<g>
		<path d="M321.671,241.817c13.704,13.705,34.575,17.098,51.943,8.435l60-30c22.251-11.125,31.254-38.125,20.127-60.378
			c-11.089-22.178-38.17-31.209-60.378-20.126l-30.994,15.497l-37.05-37.05c-4.828-4.847-11.01-8.769-18.037-11.028l0.002-0.006
			l-89.588-29.862c-16.285-5.392-33.92-1.221-46.024,10.884l-60,60c-17.544,17.544-17.544,46.091,0,63.635
			c17.589,17.59,46.044,17.592,63.635,0l40.334-40.334l5.815,1.939c-43.361,60.706-39.783,55.636-40.849,57.296
			c-0.008,0.013-0.016,0.026-0.025,0.039c-4.592,7.16-6.933,15.387-6.987,23.956c-0.002,0.073-0.003,0.145-0.004,0.218
			c0,0.023-0.001,0.046-0.001,0.069v73.365l-46.917,46.818c-12.639,12.638-16.17,30.986-10.599,46.817h-11.37l-25.607-25.606
			c-5.857-5.858-15.355-5.858-21.213,0c-5.858,5.858-5.858,15.355,0,21.213l30,30c2.813,2.813,6.628,4.394,10.606,4.394h17.58
			c-1.665,4.695-2.58,9.742-2.58,15c0,24.813,20.187,45,45,45s45-20.287,45-45.1c0-5.258-0.915-10.305-2.58-15h95.16
			c-1.665,4.695-2.58,9.842-2.58,15.1c0,24.813,20.187,45,45,45s45-20.187,45-45c0-5.258-0.915-10.305-2.58-15h17.58
			c3.979,0,7.794-1.581,10.606-4.394l30-30c5.858-5.858,5.858-15.355,0-21.213c-5.857-5.858-15.355-5.858-21.213,0L392.276,422
			h-41.367c1.665-4.695,2.58-9.742,2.58-15v-90c0-15.44-7.648-30.143-19.965-38.392l-51.499-35.139l17.203-24.085L321.671,241.817z
			 M207.539,137.159l-53.445,53.445c-5.866,5.865-15.343,5.866-21.209,0c-5.847-5.848-5.847-15.361,0-21.209l60-60
			c4.036-4.037,9.928-5.422,15.354-3.627l49.757,16.586c-1.047,1.345,0.742-1.127-18.296,25.527L207.539,137.159z M158.489,482
			c-8.271,0-15-6.729-15-15s6.729-15,15-15s15,6.729,15,15S166.76,482,158.489,482z M169.093,417.604
			c-5.865,5.865-15.342,5.866-21.208,0c-5.847-5.848-5.847-15.361,0-21.209l55.604-55.604v-40.578l30.1,20.392V347
			c0,3.946-1.602,7.811-4.396,10.604L169.093,417.604z M207.124,422l43.283-43.183c8.496-8.495,13.177-19.787,13.182-31.797V407
			c0,5.258,0.815,10.305,2.48,15H207.124z M338.489,452c8.271,0,15,6.729,15,15s-6.729,15-15,15s-15-6.729-15-15
			S330.218,452,338.489,452z M239.798,250.973l76.878,52.456l0.134,0.09c3.933,2.622,6.78,8.165,6.78,13.48v90
			c0,8.271-6.829,15-15.1,15s-15-6.729-15-15v-81.887l-83.208-56.558l-0.112-0.076c-8.543-5.695-7.751-16.788-3.893-22.193l75-105
			c6.318-8.845,19.673-8.222,25.15,1.115l0.425-0.249l49.594,49.594l50.323-25.162c7.412-3.697,16.444-0.688,20.141,6.704
			c3.698,7.403,0.688,16.433-6.711,20.132l-59.986,29.993c-5.794,2.891-12.758,1.762-17.33-2.811l-47.486-47.467L239.798,250.973z"
			/>
	</g>
</g>
<g>
</g>
<g>
</g>
<g>
</g>
<g>
</g>
<g>
</g>
<g>
</g>
<g>
</g>
<g>
</g>
<g>
</g>
<g>
</g>
<g>
</g>
<g>
</g>
<g>
</g>
<g>
</g>
<g>
</g>
</svg>
